PathFileType	4	(X/Y/Z)	./resultDataOpenSim/trcMotMarkerGrf/sub10/qtm-15-01.trc
DataRate	CameraRate	NumFrames	NumMarkers	Units	OrigDataRate	OrigDataStartFrame	OrigNumFrames
250.000000	250.000000	7	24	m	250.000000	114	452
Frame#	Time	L.Toe.Tip			R.Toe.Tip			L.Ankle.Lat			R.Ankle.Lat			L.Ankle.Med			R.Ankle.Med			L.Heel			R.Heel			L.Knee.Lat			R.Knee.Lat			L.Knee.Med			R.Knee.Med			L.Thigh.Upper			R.Thigh.Upper			L.ASIS			R.ASIS			V.Sacral			L.Acromium			R.Acromium			C7			L.Elbow			R.Elbow			L.Wrist.Lat			R.Wrist.Lat
		X1	Y1	Z1	X2	Y2	Z2	X3	Y3	Z3	X4	Y4	Z4	X5	Y5	Z5	X6	Y6	Z6	X7	Y7	Z7	X8	Y8	Z8	X9	Y9	Z9	X10	Y10	Z10	X11	Y11	Z11	X12	Y12	Z12	X13	Y13	Z13	X14	Y14	Z14	X15	Y15	Z15	X16	Y16	Z16	X17	Y17	Z17	X18	Y18	Z18	X19	Y19	Z19	X20	Y20	Z20	X21	Y21	Z21	X22	Y22	Z22	X23	Y23	Z23	X24	Y24	Z24

114	0.452	-0.46379573	0.066201676	-0.14797483	-0.80943548	0.038735729	0.059011168	-0.59884394	0.084544917	-0.15357502	-0.95241078	0.059852956	0.091822489	-0.57711279	0.10826212	-0.073289176	-0.93104238	0.084069172	0.0081706983	-0.65251831	0.048871681	-0.095364153	-1.0014975	0.036747394	0.042048359	-0.58304035	0.47048793	-0.17623424	-0.86022666	0.45347146	0.12937042	-0.55726583	0.45309696	-0.058644675	-0.84532505	0.44972206	0.00038470187	-0.71223578	0.83800535	-0.21487876	-0.7798284	0.8630875	0.16454366	-0.66618812	0.94331434	-0.1360205	-0.68500664	0.94627192	0.10602375	-0.86853474	0.96908743	-0.041750558	-0.68624541	1.4144748	-0.16646299	-0.71334294	1.4182551	0.15343141	-0.78101964	1.448569	-0.014394981	-0.84309237	1.1134229	-0.23795385	-0.79095539	1.0821278	0.24871247	-0.75737809	0.8847081	-0.27029234	-0.62215687	0.9044961	0.29367248
115	0.456	-0.44518833	0.067848749	-0.14621012	-0.80946026	0.038787276	0.059068566	-0.58054801	0.083019301	-0.15220754	-0.9532834	0.059975826	0.091582225	-0.55988404	0.10771664	-0.072008788	-0.93082333	0.084338496	0.0080880374	-0.63390458	0.046754781	-0.093751027	-1.0014656	0.03703975	0.041656503	-0.57579343	0.46924503	-0.17584294	-0.85804477	0.4532467	0.12949255	-0.54980642	0.45248481	-0.058311083	-0.84322265	0.44945406	0.00041688561	-0.70600762	0.83690835	-0.21510408	-0.77488394	0.86229587	0.16442427	-0.66014586	0.94197104	-0.13616589	-0.67956593	0.94507186	0.10612638	-0.86227725	0.96807531	-0.042040313	-0.6804498	1.4130948	-0.16627073	-0.70757034	1.4169565	0.153592	-0.77526099	1.447291	-0.014235406	-0.83868016	1.1128362	-0.23837071	-0.78335253	1.0802486	0.2495254	-0.75501836	0.88350713	-0.27088735	-0.61150206	0.9050063	0.29301629
116	0.46	-0.42670678	0.069698484	-0.14437906	-0.80948749	0.038824588	0.059071626	-0.56234951	0.081739063	-0.15097843	-0.95357112	0.060115492	0.091427688	-0.54266246	0.10735981	-0.070820462	-0.9305823	0.084635475	0.0079051568	-0.61534815	0.044768878	-0.0924532	-1.0014149	0.037343259	0.041294567	-0.56862181	0.46791812	-0.17550171	-0.85566582	0.4529933	0.12962787	-0.54236529	0.45179003	-0.05797358	-0.84102405	0.44920436	0.00043079295	-0.69974284	0.83573909	-0.2153384	-0.76982782	0.86145801	0.16430702	-0.65406075	0.94057282	-0.13640626	-0.6741037	0.9438274	0.10616087	-0.85618227	0.96694086	-0.042450609	-0.67475379	1.4116613	-0.16613345	-0.70173683	1.4155831	0.15372765	-0.76951152	1.4459763	-0.014107303	-0.83418284	1.112212	-0.23868408	-0.77571825	1.0783306	0.25029895	-0.75261195	0.88227903	-0.27152977	-0.6008447	0.90551673	0.2923044
117	0.464	-0.40837396	0.071772471	-0.14249344	-0.80949426	0.03883928	0.059035234	-0.54425972	0.080707999	-0.14986917	-0.9535677	0.060298808	0.091232739	-0.52552356	0.1071393	-0.069703289	-0.93029605	0.084944237	0.0076185	-0.59678781	0.042960913	-0.091403833	-1.001353	0.037668425	0.04081538	-0.56155905	0.46652154	-0.17520324	-0.85321344	0.45273521	0.12972466	-0.53492581	0.45103122	-0.057607642	-0.83874696	0.44896074	0.00042099671	-0.69349226	0.83448944	-0.21559138	-0.76464506	0.86056194	0.16417385	-0.64795384	0.93912047	-0.13673591	-0.66858151	0.94254774	0.10613449	-0.850293	0.96565051	-0.043005359	-0.66913849	1.4101848	-0.16604661	-0.69583258	1.4141472	0.15383793	-0.76376739	1.4446217	-0.013994551	-0.82940797	1.1115381	-0.23857023	-0.76801579	1.0763714	0.25100544	-0.75014186	0.8810292	-0.27221866	-0.59017089	0.90602914	0.29153345
118	0.468	-0.39022352	0.074081817	-0.14056038	-0.80946978	0.038837232	0.058976194	-0.52629511	0.079926666	-0.14886274	-0.95352662	0.060563283	0.090839057	-0.50853884	0.10703427	-0.068628819	-0.92995772	0.085248293	0.0072467343	-0.57813166	0.041276031	-0.090677864	-1.0012877	0.03801809	0.040194758	-0.55456196	0.46508343	-0.17493924	-0.85077205	0.45248065	0.12973645	-0.5274908	0.45022171	-0.057200345	-0.83641713	0.44871104	0.00037365589	-0.68734399	0.83315883	-0.21589611	-0.75933867	0.85961035	0.16402239	-0.64183696	0.93761685	-0.13713947	-0.66299068	0.94123547	0.10605165	-0.84451683	0.96422372	-0.043629642	-0.66354028	1.4086663	-0.16599125	-0.68985233	1.4126615	0.1539223	-0.75801945	1.4432179	-0.013890541	-0.82436445	1.1107997	-0.23803599	-0.7601896	1.0743512	0.25159702	-0.74757403	0.87976416	-0.27291357	-0.57949155	0.90654459	0.29070531
119	0.472	-0.37229437	0.076626642	-0.13858093	-0.80942969	0.038821646	0.058899065	-0.5084794	0.079385371	-0.14795595	-0.95353286	0.060897711	0.090238583	-0.49175968	0.10703355	-0.067573243	-0.92958258	0.085538088	0.0068230077	-0.55928837	0.03955114	-0.090421577	-1.0012234	0.038395507	0.039500205	-0.54749581	0.46363766	-0.17469947	-0.84834701	0.45220872	0.12964342	-0.5200809	0.44936129	-0.056755599	-0.8340258	0.44845283	0.00027209031	-0.68132894	0.83175487	-0.21627087	-0.75392613	0.85860938	0.16386206	-0.6356809	0.93606998	-0.13759748	-0.65733323	0.93988963	0.10591212	-0.83875007	0.96270072	-0.044244695	-0.65789036	1.4071027	-0.16595255	-0.68379678	1.4111283	0.15397443	-0.75225812	1.4417627	-0.013794228	-0.8192312	1.109992	-0.23738832	-0.75222455	1.0722559	0.25205707	-0.74488409	0.87849115	-0.27357786	-0.56883096	0.90706655	0.28982865
120	0.476	-0.35461974	0.079396634	-0.13655058	-0.80940116	0.038783165	0.058799077	-0.49083591	0.079067716	-0.14715234	-0.95357669	0.061247028	0.089582333	-0.47523105	0.1071311	-0.066539936	-0.92918859	0.085812444	0.0063770992	-0.54032728	0.037709238	-0.090642093	-1.0011641	0.038802068	0.038803288	-0.5402504	0.46219747	-0.17446767	-0.84593413	0.45189511	0.12943634	-0.51271477	0.44844378	-0.056280491	-0.83153159	0.44819127	0.00010432438	-0.67538159	0.830288	-0.21669495	-0.74842509	0.85755792	0.16369968	-0.62940748	0.93448858	-0.13807909	-0.65161633	0.93851093	0.10571093	-0.83292983	0.96111212	-0.044801809	-0.6521235	1.4054984	-0.16591433	-0.67767143	1.4095482	0.15399189	-0.74647266	1.4402691	-0.013707732	-0.81417436	1.1091234	-0.23688488	-0.74420171	1.0701112	0.25245053	-0.74208665	0.87721653	-0.27421169	-0.55821386	0.90759813	0.28891147
